<mxfile host="www.draw.io" modified="2019-12-03T02:53:48.102Z" agent="Mozilla/5.0 (Windows NT 10.0; WOW64) AppleWebKit/537.36 (KHTML, like Gecko) Chrome/78.0.3904.70 Safari/537.36" etag="Wdc9jXOm_mZB8pbOza1m" version="12.3.5" type="github" pages="1">
  <diagram id="rXSLRO1IoKt_XzlSv52n" name="第 1 页">
    <mxGraphModel dx="1422" dy="762" grid="0" gridSize="10" guides="1" tooltips="1" connect="1" arrows="1" fold="1" page="1" pageScale="1" pageWidth="827" pageHeight="1169" math="0" shadow="0">
      <root>
        <mxCell id="0"/>
        <mxCell id="1" parent="0"/>
        <mxCell id="XAKyekUiWk0M3xD3h44W-1" value="简单工厂模式" style="text;strokeColor=none;fillColor=none;html=1;fontSize=24;fontStyle=1;verticalAlign=middle;align=center;" vertex="1" parent="1">
          <mxGeometry x="275" y="40" width="277" height="40" as="geometry"/>
        </mxCell>
        <mxCell id="XAKyekUiWk0M3xD3h44W-17" value="运算类" style="swimlane;fontStyle=1;align=center;verticalAlign=top;childLayout=stackLayout;horizontal=1;startSize=28;horizontalStack=0;resizeParent=1;resizeParentMax=0;resizeLast=0;collapsible=1;marginBottom=0;rounded=0;glass=0;html=0;" vertex="1" parent="1">
          <mxGeometry x="240" y="150" width="160" height="110" as="geometry"/>
        </mxCell>
        <mxCell id="XAKyekUiWk0M3xD3h44W-18" value="+ numberA: double" style="text;strokeColor=none;fillColor=none;align=left;verticalAlign=top;spacingLeft=4;spacingRight=4;overflow=hidden;rotatable=0;points=[[0,0.5],[1,0.5]];portConstraint=eastwest;" vertex="1" parent="XAKyekUiWk0M3xD3h44W-17">
          <mxGeometry y="28" width="160" height="22" as="geometry"/>
        </mxCell>
        <mxCell id="XAKyekUiWk0M3xD3h44W-40" value="+ numberB: double" style="text;strokeColor=none;fillColor=none;align=left;verticalAlign=top;spacingLeft=4;spacingRight=4;overflow=hidden;rotatable=0;points=[[0,0.5],[1,0.5]];portConstraint=eastwest;rounded=0;glass=0;html=0;" vertex="1" parent="XAKyekUiWk0M3xD3h44W-17">
          <mxGeometry y="50" width="160" height="26" as="geometry"/>
        </mxCell>
        <mxCell id="XAKyekUiWk0M3xD3h44W-19" value="" style="line;strokeWidth=1;fillColor=none;align=left;verticalAlign=middle;spacingTop=-1;spacingLeft=3;spacingRight=3;rotatable=0;labelPosition=right;points=[];portConstraint=eastwest;" vertex="1" parent="XAKyekUiWk0M3xD3h44W-17">
          <mxGeometry y="76" width="160" height="8" as="geometry"/>
        </mxCell>
        <mxCell id="XAKyekUiWk0M3xD3h44W-20" value="+ GetResult(): double" style="text;strokeColor=none;fillColor=none;align=left;verticalAlign=top;spacingLeft=4;spacingRight=4;overflow=hidden;rotatable=0;points=[[0,0.5],[1,0.5]];portConstraint=eastwest;" vertex="1" parent="XAKyekUiWk0M3xD3h44W-17">
          <mxGeometry y="84" width="160" height="26" as="geometry"/>
        </mxCell>
        <mxCell id="XAKyekUiWk0M3xD3h44W-21" value="简单工厂类" style="swimlane;fontStyle=1;align=center;verticalAlign=top;childLayout=stackLayout;horizontal=1;startSize=26;horizontalStack=0;resizeParent=1;resizeParentMax=0;resizeLast=0;collapsible=1;marginBottom=0;rounded=0;glass=0;html=0;" vertex="1" parent="1">
          <mxGeometry x="590" y="162" width="190" height="86" as="geometry"/>
        </mxCell>
        <mxCell id="XAKyekUiWk0M3xD3h44W-39" value=" " style="text;strokeColor=none;fillColor=none;align=left;verticalAlign=top;spacingLeft=4;spacingRight=4;overflow=hidden;rotatable=0;points=[[0,0.5],[1,0.5]];portConstraint=eastwest;rounded=0;glass=0;html=0;" vertex="1" parent="XAKyekUiWk0M3xD3h44W-21">
          <mxGeometry y="26" width="190" height="26" as="geometry"/>
        </mxCell>
        <mxCell id="XAKyekUiWk0M3xD3h44W-23" value="" style="line;strokeWidth=1;fillColor=none;align=left;verticalAlign=middle;spacingTop=-1;spacingLeft=3;spacingRight=3;rotatable=0;labelPosition=right;points=[];portConstraint=eastwest;" vertex="1" parent="XAKyekUiWk0M3xD3h44W-21">
          <mxGeometry y="52" width="190" height="8" as="geometry"/>
        </mxCell>
        <mxCell id="XAKyekUiWk0M3xD3h44W-24" value="+ createOperate(string): 运算类" style="text;strokeColor=none;fillColor=none;align=left;verticalAlign=top;spacingLeft=4;spacingRight=4;overflow=hidden;rotatable=0;points=[[0,0.5],[1,0.5]];portConstraint=eastwest;" vertex="1" parent="XAKyekUiWk0M3xD3h44W-21">
          <mxGeometry y="60" width="190" height="26" as="geometry"/>
        </mxCell>
        <mxCell id="XAKyekUiWk0M3xD3h44W-27" value="" style="html=1;verticalAlign=bottom;endArrow=open;dashed=1;endSize=8;" edge="1" parent="1" source="XAKyekUiWk0M3xD3h44W-21" target="XAKyekUiWk0M3xD3h44W-17">
          <mxGeometry x="-0.0136" y="-7" relative="1" as="geometry">
            <mxPoint x="460" y="170" as="sourcePoint"/>
            <mxPoint x="380" y="170" as="targetPoint"/>
            <mxPoint as="offset"/>
          </mxGeometry>
        </mxCell>
        <mxCell id="XAKyekUiWk0M3xD3h44W-28" value="" style="endArrow=block;endFill=0;endSize=12;html=1;exitX=0.644;exitY=0.007;exitDx=0;exitDy=0;exitPerimeter=0;" edge="1" parent="1" source="XAKyekUiWk0M3xD3h44W-33" target="XAKyekUiWk0M3xD3h44W-17">
          <mxGeometry width="160" relative="1" as="geometry">
            <mxPoint x="280" y="340" as="sourcePoint"/>
            <mxPoint x="270" y="310" as="targetPoint"/>
            <Array as="points">
              <mxPoint x="320" y="320"/>
            </Array>
          </mxGeometry>
        </mxCell>
        <mxCell id="XAKyekUiWk0M3xD3h44W-33" value="加法类" style="swimlane;fontStyle=1;align=center;verticalAlign=top;childLayout=stackLayout;horizontal=1;startSize=26;horizontalStack=0;resizeParent=1;resizeParentMax=0;resizeLast=0;collapsible=1;marginBottom=0;rounded=0;glass=0;html=0;" vertex="1" parent="1">
          <mxGeometry x="40" y="320" width="160" height="86" as="geometry"/>
        </mxCell>
        <mxCell id="XAKyekUiWk0M3xD3h44W-34" value=" " style="text;strokeColor=none;fillColor=none;align=left;verticalAlign=top;spacingLeft=4;spacingRight=4;overflow=hidden;rotatable=0;points=[[0,0.5],[1,0.5]];portConstraint=eastwest;" vertex="1" parent="XAKyekUiWk0M3xD3h44W-33">
          <mxGeometry y="26" width="160" height="26" as="geometry"/>
        </mxCell>
        <mxCell id="XAKyekUiWk0M3xD3h44W-35" value="" style="line;strokeWidth=1;fillColor=none;align=left;verticalAlign=middle;spacingTop=-1;spacingLeft=3;spacingRight=3;rotatable=0;labelPosition=right;points=[];portConstraint=eastwest;" vertex="1" parent="XAKyekUiWk0M3xD3h44W-33">
          <mxGeometry y="52" width="160" height="8" as="geometry"/>
        </mxCell>
        <mxCell id="XAKyekUiWk0M3xD3h44W-36" value="+ GetResult(): double" style="text;strokeColor=none;fillColor=none;align=left;verticalAlign=top;spacingLeft=4;spacingRight=4;overflow=hidden;rotatable=0;points=[[0,0.5],[1,0.5]];portConstraint=eastwest;" vertex="1" parent="XAKyekUiWk0M3xD3h44W-33">
          <mxGeometry y="60" width="160" height="26" as="geometry"/>
        </mxCell>
        <mxCell id="XAKyekUiWk0M3xD3h44W-43" value="乘法类" style="swimlane;fontStyle=1;align=center;verticalAlign=top;childLayout=stackLayout;horizontal=1;startSize=26;horizontalStack=0;resizeParent=1;resizeParentMax=0;resizeLast=0;collapsible=1;marginBottom=0;rounded=0;glass=0;html=0;" vertex="1" parent="1">
          <mxGeometry x="440" y="320" width="160" height="86" as="geometry"/>
        </mxCell>
        <mxCell id="XAKyekUiWk0M3xD3h44W-44" value=" " style="text;strokeColor=none;fillColor=none;align=left;verticalAlign=top;spacingLeft=4;spacingRight=4;overflow=hidden;rotatable=0;points=[[0,0.5],[1,0.5]];portConstraint=eastwest;" vertex="1" parent="XAKyekUiWk0M3xD3h44W-43">
          <mxGeometry y="26" width="160" height="26" as="geometry"/>
        </mxCell>
        <mxCell id="XAKyekUiWk0M3xD3h44W-45" value="" style="line;strokeWidth=1;fillColor=none;align=left;verticalAlign=middle;spacingTop=-1;spacingLeft=3;spacingRight=3;rotatable=0;labelPosition=right;points=[];portConstraint=eastwest;" vertex="1" parent="XAKyekUiWk0M3xD3h44W-43">
          <mxGeometry y="52" width="160" height="8" as="geometry"/>
        </mxCell>
        <mxCell id="XAKyekUiWk0M3xD3h44W-46" value="+ GetResult(): double" style="text;strokeColor=none;fillColor=none;align=left;verticalAlign=top;spacingLeft=4;spacingRight=4;overflow=hidden;rotatable=0;points=[[0,0.5],[1,0.5]];portConstraint=eastwest;" vertex="1" parent="XAKyekUiWk0M3xD3h44W-43">
          <mxGeometry y="60" width="160" height="26" as="geometry"/>
        </mxCell>
        <mxCell id="XAKyekUiWk0M3xD3h44W-49" value="减法类" style="swimlane;fontStyle=1;align=center;verticalAlign=top;childLayout=stackLayout;horizontal=1;startSize=26;horizontalStack=0;resizeParent=1;resizeParentMax=0;resizeLast=0;collapsible=1;marginBottom=0;rounded=0;glass=0;html=0;" vertex="1" parent="1">
          <mxGeometry x="60" y="470" width="160" height="86" as="geometry"/>
        </mxCell>
        <mxCell id="XAKyekUiWk0M3xD3h44W-50" value=" " style="text;strokeColor=none;fillColor=none;align=left;verticalAlign=top;spacingLeft=4;spacingRight=4;overflow=hidden;rotatable=0;points=[[0,0.5],[1,0.5]];portConstraint=eastwest;" vertex="1" parent="XAKyekUiWk0M3xD3h44W-49">
          <mxGeometry y="26" width="160" height="26" as="geometry"/>
        </mxCell>
        <mxCell id="XAKyekUiWk0M3xD3h44W-51" value="" style="line;strokeWidth=1;fillColor=none;align=left;verticalAlign=middle;spacingTop=-1;spacingLeft=3;spacingRight=3;rotatable=0;labelPosition=right;points=[];portConstraint=eastwest;" vertex="1" parent="XAKyekUiWk0M3xD3h44W-49">
          <mxGeometry y="52" width="160" height="8" as="geometry"/>
        </mxCell>
        <mxCell id="XAKyekUiWk0M3xD3h44W-52" value="+ GetResult(): double" style="text;strokeColor=none;fillColor=none;align=left;verticalAlign=top;spacingLeft=4;spacingRight=4;overflow=hidden;rotatable=0;points=[[0,0.5],[1,0.5]];portConstraint=eastwest;" vertex="1" parent="XAKyekUiWk0M3xD3h44W-49">
          <mxGeometry y="60" width="160" height="26" as="geometry"/>
        </mxCell>
        <mxCell id="XAKyekUiWk0M3xD3h44W-55" value="除法类" style="swimlane;fontStyle=1;align=center;verticalAlign=top;childLayout=stackLayout;horizontal=1;startSize=26;horizontalStack=0;resizeParent=1;resizeParentMax=0;resizeLast=0;collapsible=1;marginBottom=0;rounded=0;glass=0;html=0;" vertex="1" parent="1">
          <mxGeometry x="430" y="470" width="160" height="86" as="geometry"/>
        </mxCell>
        <mxCell id="XAKyekUiWk0M3xD3h44W-56" value=" " style="text;strokeColor=none;fillColor=none;align=left;verticalAlign=top;spacingLeft=4;spacingRight=4;overflow=hidden;rotatable=0;points=[[0,0.5],[1,0.5]];portConstraint=eastwest;" vertex="1" parent="XAKyekUiWk0M3xD3h44W-55">
          <mxGeometry y="26" width="160" height="26" as="geometry"/>
        </mxCell>
        <mxCell id="XAKyekUiWk0M3xD3h44W-57" value="" style="line;strokeWidth=1;fillColor=none;align=left;verticalAlign=middle;spacingTop=-1;spacingLeft=3;spacingRight=3;rotatable=0;labelPosition=right;points=[];portConstraint=eastwest;" vertex="1" parent="XAKyekUiWk0M3xD3h44W-55">
          <mxGeometry y="52" width="160" height="8" as="geometry"/>
        </mxCell>
        <mxCell id="XAKyekUiWk0M3xD3h44W-58" value="+ GetResult(): double" style="text;strokeColor=none;fillColor=none;align=left;verticalAlign=top;spacingLeft=4;spacingRight=4;overflow=hidden;rotatable=0;points=[[0,0.5],[1,0.5]];portConstraint=eastwest;" vertex="1" parent="XAKyekUiWk0M3xD3h44W-55">
          <mxGeometry y="60" width="160" height="26" as="geometry"/>
        </mxCell>
        <mxCell id="XAKyekUiWk0M3xD3h44W-61" value="" style="endArrow=block;endFill=0;endSize=12;html=1;" edge="1" parent="1" source="XAKyekUiWk0M3xD3h44W-49" target="XAKyekUiWk0M3xD3h44W-17">
          <mxGeometry width="160" relative="1" as="geometry">
            <mxPoint x="393.4042553191489" y="370" as="sourcePoint"/>
            <mxPoint x="316.8085106382978" y="280" as="targetPoint"/>
            <Array as="points">
              <mxPoint x="320" y="320"/>
            </Array>
          </mxGeometry>
        </mxCell>
        <mxCell id="XAKyekUiWk0M3xD3h44W-64" value="" style="endArrow=block;endFill=0;endSize=12;html=1;" edge="1" parent="1" source="XAKyekUiWk0M3xD3h44W-55" target="XAKyekUiWk0M3xD3h44W-17">
          <mxGeometry width="160" relative="1" as="geometry">
            <mxPoint x="187.51131221719447" y="508" as="sourcePoint"/>
            <mxPoint x="260" y="270" as="targetPoint"/>
            <Array as="points">
              <mxPoint x="320" y="320"/>
            </Array>
          </mxGeometry>
        </mxCell>
        <mxCell id="XAKyekUiWk0M3xD3h44W-65" value="" style="endArrow=block;endFill=0;endSize=12;html=1;exitX=0.413;exitY=0;exitDx=0;exitDy=0;exitPerimeter=0;" edge="1" parent="1" source="XAKyekUiWk0M3xD3h44W-43" target="XAKyekUiWk0M3xD3h44W-17">
          <mxGeometry width="160" relative="1" as="geometry">
            <mxPoint x="500" y="280" as="sourcePoint"/>
            <mxPoint x="330" y="270" as="targetPoint"/>
            <Array as="points">
              <mxPoint x="320" y="321"/>
            </Array>
          </mxGeometry>
        </mxCell>
        <mxCell id="XAKyekUiWk0M3xD3h44W-66" value="" style="html=1;verticalAlign=bottom;endArrow=open;dashed=1;endSize=8;" edge="1" parent="1">
          <mxGeometry x="-0.0136" y="-7" relative="1" as="geometry">
            <mxPoint x="730" y="590" as="sourcePoint"/>
            <mxPoint x="680" y="590" as="targetPoint"/>
            <mxPoint as="offset"/>
          </mxGeometry>
        </mxCell>
        <mxCell id="XAKyekUiWk0M3xD3h44W-67" value="依赖" style="text;html=1;align=center;verticalAlign=middle;resizable=0;points=[];;autosize=1;" vertex="1" parent="1">
          <mxGeometry x="735" y="580" width="40" height="20" as="geometry"/>
        </mxCell>
        <mxCell id="XAKyekUiWk0M3xD3h44W-68" value="" style="endArrow=block;endFill=0;endSize=12;html=1;" edge="1" parent="1">
          <mxGeometry width="160" relative="1" as="geometry">
            <mxPoint x="730" y="620" as="sourcePoint"/>
            <mxPoint x="680" y="620" as="targetPoint"/>
            <Array as="points"/>
          </mxGeometry>
        </mxCell>
        <mxCell id="XAKyekUiWk0M3xD3h44W-69" value="继承" style="text;html=1;align=center;verticalAlign=middle;resizable=0;points=[];;autosize=1;" vertex="1" parent="1">
          <mxGeometry x="735" y="610" width="40" height="20" as="geometry"/>
        </mxCell>
      </root>
    </mxGraphModel>
  </diagram>
</mxfile>
